<svg width="331" height="39" viewBox="0 0 331 39" fill="none" xmlns="http://www.w3.org/2000/svg">
<mask id="path-1-outside-1_2_105" maskUnits="userSpaceOnUse" x="0" y="0" width="331" height="39" fill="black">
<rect fill="white" width="331" height="39"/>
<path d="M40.3075 10.552L32.0995 37H26.3395L21.0115 17.464L15.6835 37H9.9235L1.6675 10.552H7.2355L12.7555 31.816L18.3715 10.552H24.0835L29.4595 31.72L34.9315 10.552H40.3075ZM42.5729 23.656C42.5729 21 43.1169 18.648 44.2049 16.6C45.3249 14.552 46.8289 12.968 48.7169 11.848C50.6369 10.696 52.7489 10.12 55.0529 10.12C57.1329 10.12 58.9409 10.536 60.4769 11.368C62.0449 12.168 63.2929 13.176 64.2209 14.392V10.552H69.7409V37H64.2209V33.064C63.2929 34.312 62.0289 35.352 60.4289 36.184C58.8289 37.016 57.0049 37.432 54.9569 37.432C52.6849 37.432 50.6049 36.856 48.7169 35.704C46.8289 34.52 45.3249 32.888 44.2049 30.808C43.1169 28.696 42.5729 26.312 42.5729 23.656ZM64.2209 23.752C64.2209 21.928 63.8369 20.344 63.0689 19C62.3329 17.656 61.3569 16.632 60.1409 15.928C58.9249 15.224 57.6129 14.872 56.2049 14.872C54.7969 14.872 53.4849 15.224 52.2689 15.928C51.0529 16.6 50.0609 17.608 49.2929 18.952C48.5569 20.264 48.1889 21.832 48.1889 23.656C48.1889 25.48 48.5569 27.08 49.2929 28.456C50.0609 29.832 51.0529 30.888 52.2689 31.624C53.5169 32.328 54.8289 32.68 56.2049 32.68C57.6129 32.68 58.9249 32.328 60.1409 31.624C61.3569 30.92 62.3329 29.896 63.0689 28.552C63.8369 27.176 64.2209 25.576 64.2209 23.752ZM82.4001 1.48V37H76.9281V1.48H82.4001ZM95.0564 1.48V37H89.5844V1.48H95.0564ZM126.481 23.128C126.481 24.12 126.417 25.016 126.289 25.816H106.081C106.241 27.928 107.025 29.624 108.433 30.904C109.841 32.184 111.569 32.824 113.617 32.824C116.561 32.824 118.641 31.592 119.857 29.128H125.761C124.961 31.56 123.505 33.56 121.393 35.128C119.313 36.664 116.721 37.432 113.617 37.432C111.089 37.432 108.817 36.872 106.801 35.752C104.817 34.6 103.249 33 102.097 30.952C100.977 28.872 100.417 26.472 100.417 23.752C100.417 21.032 100.961 18.648 102.049 16.6C103.169 14.52 104.721 12.92 106.705 11.8C108.721 10.68 111.025 10.12 113.617 10.12C116.113 10.12 118.337 10.664 120.289 11.752C122.241 12.84 123.761 14.376 124.849 16.36C125.937 18.312 126.481 20.568 126.481 23.128ZM120.769 21.4C120.737 19.384 120.017 17.768 118.609 16.552C117.201 15.336 115.457 14.728 113.377 14.728C111.489 14.728 109.873 15.336 108.529 16.552C107.185 17.736 106.385 19.352 106.129 21.4H120.769ZM138.25 15.016V29.656C138.25 30.648 138.474 31.368 138.922 31.816C139.402 32.232 140.202 32.44 141.322 32.44H144.682V37H140.362C137.898 37 136.01 36.424 134.698 35.272C133.386 34.12 132.73 32.248 132.73 29.656V15.016H129.61V10.552H132.73V3.976H138.25V10.552H144.682V15.016H138.25ZM168.578 15.016V29.656C168.578 30.648 168.802 31.368 169.25 31.816C169.73 32.232 170.53 32.44 171.65 32.44H175.01V37H170.69C168.226 37 166.338 36.424 165.026 35.272C163.714 34.12 163.058 32.248 163.058 29.656V15.016H159.938V10.552H163.058V3.976H168.578V10.552H175.01V15.016H168.578ZM185.525 14.392C186.325 13.048 187.381 12.008 188.693 11.272C190.037 10.504 191.621 10.12 193.445 10.12V15.784H192.053C189.909 15.784 188.277 16.328 187.157 17.416C186.069 18.504 185.525 20.392 185.525 23.08V37H180.053V10.552H185.525V14.392ZM196.651 23.656C196.651 21 197.195 18.648 198.283 16.6C199.403 14.552 200.907 12.968 202.795 11.848C204.715 10.696 206.827 10.12 209.131 10.12C211.211 10.12 213.019 10.536 214.555 11.368C216.123 12.168 217.371 13.176 218.299 14.392V10.552H223.819V37H218.299V33.064C217.371 34.312 216.107 35.352 214.507 36.184C212.907 37.016 211.083 37.432 209.035 37.432C206.763 37.432 204.683 36.856 202.795 35.704C200.907 34.52 199.403 32.888 198.283 30.808C197.195 28.696 196.651 26.312 196.651 23.656ZM218.299 23.752C218.299 21.928 217.915 20.344 217.147 19C216.411 17.656 215.435 16.632 214.219 15.928C213.003 15.224 211.691 14.872 210.283 14.872C208.875 14.872 207.563 15.224 206.347 15.928C205.131 16.6 204.139 17.608 203.371 18.952C202.635 20.264 202.267 21.832 202.267 23.656C202.267 25.48 202.635 27.08 203.371 28.456C204.139 29.832 205.131 30.888 206.347 31.624C207.595 32.328 208.907 32.68 210.283 32.68C211.691 32.68 213.003 32.328 214.219 31.624C215.435 30.92 216.411 29.896 217.147 28.552C217.915 27.176 218.299 25.576 218.299 23.752ZM229.182 23.752C229.182 21.032 229.726 18.648 230.814 16.6C231.934 14.52 233.47 12.92 235.422 11.8C237.374 10.68 239.614 10.12 242.142 10.12C245.342 10.12 247.982 10.888 250.062 12.424C252.174 13.928 253.598 16.088 254.334 18.904H248.43C247.95 17.592 247.182 16.568 246.126 15.832C245.07 15.096 243.742 14.728 242.142 14.728C239.902 14.728 238.11 15.528 236.766 17.128C235.454 18.696 234.798 20.904 234.798 23.752C234.798 26.6 235.454 28.824 236.766 30.424C238.11 32.024 239.902 32.824 242.142 32.824C245.31 32.824 247.406 31.432 248.43 28.648H254.334C253.566 31.336 252.126 33.48 250.014 35.08C247.902 36.648 245.278 37.432 242.142 37.432C239.614 37.432 237.374 36.872 235.422 35.752C233.47 34.6 231.934 33 230.814 30.952C229.726 28.872 229.182 26.472 229.182 23.752ZM270.252 23.8L282.444 37H275.052L265.26 25.624V37H259.788V1.48H265.26V22.12L274.86 10.552H282.444L270.252 23.8ZM310.606 23.128C310.606 24.12 310.542 25.016 310.414 25.816H290.206C290.366 27.928 291.15 29.624 292.558 30.904C293.966 32.184 295.694 32.824 297.742 32.824C300.686 32.824 302.766 31.592 303.982 29.128H309.886C309.086 31.56 307.63 33.56 305.518 35.128C303.438 36.664 300.846 37.432 297.742 37.432C295.214 37.432 292.942 36.872 290.926 35.752C288.942 34.6 287.374 33 286.222 30.952C285.102 28.872 284.542 26.472 284.542 23.752C284.542 21.032 285.086 18.648 286.174 16.6C287.294 14.52 288.846 12.92 290.83 11.8C292.846 10.68 295.15 10.12 297.742 10.12C300.238 10.12 302.462 10.664 304.414 11.752C306.366 12.84 307.886 14.376 308.974 16.36C310.062 18.312 310.606 20.568 310.606 23.128ZM304.894 21.4C304.862 19.384 304.142 17.768 302.734 16.552C301.326 15.336 299.582 14.728 297.502 14.728C295.614 14.728 293.998 15.336 292.654 16.552C291.31 17.736 290.51 19.352 290.254 21.4H304.894ZM321.463 14.392C322.263 13.048 323.319 12.008 324.631 11.272C325.975 10.504 327.559 10.12 329.383 10.12V15.784H327.991C325.847 15.784 324.215 16.328 323.095 17.416C322.007 18.504 321.463 20.392 321.463 23.08V37H315.991V10.552H321.463V14.392Z"/>
</mask>
<path d="M40.3075 10.552L32.0995 37H26.3395L21.0115 17.464L15.6835 37H9.9235L1.6675 10.552H7.2355L12.7555 31.816L18.3715 10.552H24.0835L29.4595 31.72L34.9315 10.552H40.3075ZM42.5729 23.656C42.5729 21 43.1169 18.648 44.2049 16.6C45.3249 14.552 46.8289 12.968 48.7169 11.848C50.6369 10.696 52.7489 10.12 55.0529 10.12C57.1329 10.12 58.9409 10.536 60.4769 11.368C62.0449 12.168 63.2929 13.176 64.2209 14.392V10.552H69.7409V37H64.2209V33.064C63.2929 34.312 62.0289 35.352 60.4289 36.184C58.8289 37.016 57.0049 37.432 54.9569 37.432C52.6849 37.432 50.6049 36.856 48.7169 35.704C46.8289 34.52 45.3249 32.888 44.2049 30.808C43.1169 28.696 42.5729 26.312 42.5729 23.656ZM64.2209 23.752C64.2209 21.928 63.8369 20.344 63.0689 19C62.3329 17.656 61.3569 16.632 60.1409 15.928C58.9249 15.224 57.6129 14.872 56.2049 14.872C54.7969 14.872 53.4849 15.224 52.2689 15.928C51.0529 16.6 50.0609 17.608 49.2929 18.952C48.5569 20.264 48.1889 21.832 48.1889 23.656C48.1889 25.48 48.5569 27.08 49.2929 28.456C50.0609 29.832 51.0529 30.888 52.2689 31.624C53.5169 32.328 54.8289 32.68 56.2049 32.68C57.6129 32.68 58.9249 32.328 60.1409 31.624C61.3569 30.92 62.3329 29.896 63.0689 28.552C63.8369 27.176 64.2209 25.576 64.2209 23.752ZM82.4001 1.48V37H76.9281V1.48H82.4001ZM95.0564 1.48V37H89.5844V1.48H95.0564ZM126.481 23.128C126.481 24.12 126.417 25.016 126.289 25.816H106.081C106.241 27.928 107.025 29.624 108.433 30.904C109.841 32.184 111.569 32.824 113.617 32.824C116.561 32.824 118.641 31.592 119.857 29.128H125.761C124.961 31.56 123.505 33.56 121.393 35.128C119.313 36.664 116.721 37.432 113.617 37.432C111.089 37.432 108.817 36.872 106.801 35.752C104.817 34.6 103.249 33 102.097 30.952C100.977 28.872 100.417 26.472 100.417 23.752C100.417 21.032 100.961 18.648 102.049 16.6C103.169 14.52 104.721 12.92 106.705 11.8C108.721 10.68 111.025 10.12 113.617 10.12C116.113 10.12 118.337 10.664 120.289 11.752C122.241 12.84 123.761 14.376 124.849 16.36C125.937 18.312 126.481 20.568 126.481 23.128ZM120.769 21.4C120.737 19.384 120.017 17.768 118.609 16.552C117.201 15.336 115.457 14.728 113.377 14.728C111.489 14.728 109.873 15.336 108.529 16.552C107.185 17.736 106.385 19.352 106.129 21.4H120.769ZM138.25 15.016V29.656C138.25 30.648 138.474 31.368 138.922 31.816C139.402 32.232 140.202 32.44 141.322 32.44H144.682V37H140.362C137.898 37 136.01 36.424 134.698 35.272C133.386 34.12 132.73 32.248 132.73 29.656V15.016H129.61V10.552H132.73V3.976H138.25V10.552H144.682V15.016H138.25ZM168.578 15.016V29.656C168.578 30.648 168.802 31.368 169.25 31.816C169.73 32.232 170.53 32.44 171.65 32.44H175.01V37H170.69C168.226 37 166.338 36.424 165.026 35.272C163.714 34.12 163.058 32.248 163.058 29.656V15.016H159.938V10.552H163.058V3.976H168.578V10.552H175.01V15.016H168.578ZM185.525 14.392C186.325 13.048 187.381 12.008 188.693 11.272C190.037 10.504 191.621 10.12 193.445 10.12V15.784H192.053C189.909 15.784 188.277 16.328 187.157 17.416C186.069 18.504 185.525 20.392 185.525 23.08V37H180.053V10.552H185.525V14.392ZM196.651 23.656C196.651 21 197.195 18.648 198.283 16.6C199.403 14.552 200.907 12.968 202.795 11.848C204.715 10.696 206.827 10.12 209.131 10.12C211.211 10.12 213.019 10.536 214.555 11.368C216.123 12.168 217.371 13.176 218.299 14.392V10.552H223.819V37H218.299V33.064C217.371 34.312 216.107 35.352 214.507 36.184C212.907 37.016 211.083 37.432 209.035 37.432C206.763 37.432 204.683 36.856 202.795 35.704C200.907 34.52 199.403 32.888 198.283 30.808C197.195 28.696 196.651 26.312 196.651 23.656ZM218.299 23.752C218.299 21.928 217.915 20.344 217.147 19C216.411 17.656 215.435 16.632 214.219 15.928C213.003 15.224 211.691 14.872 210.283 14.872C208.875 14.872 207.563 15.224 206.347 15.928C205.131 16.6 204.139 17.608 203.371 18.952C202.635 20.264 202.267 21.832 202.267 23.656C202.267 25.48 202.635 27.08 203.371 28.456C204.139 29.832 205.131 30.888 206.347 31.624C207.595 32.328 208.907 32.68 210.283 32.68C211.691 32.68 213.003 32.328 214.219 31.624C215.435 30.92 216.411 29.896 217.147 28.552C217.915 27.176 218.299 25.576 218.299 23.752ZM229.182 23.752C229.182 21.032 229.726 18.648 230.814 16.6C231.934 14.52 233.47 12.92 235.422 11.8C237.374 10.68 239.614 10.12 242.142 10.12C245.342 10.12 247.982 10.888 250.062 12.424C252.174 13.928 253.598 16.088 254.334 18.904H248.43C247.95 17.592 247.182 16.568 246.126 15.832C245.07 15.096 243.742 14.728 242.142 14.728C239.902 14.728 238.11 15.528 236.766 17.128C235.454 18.696 234.798 20.904 234.798 23.752C234.798 26.6 235.454 28.824 236.766 30.424C238.11 32.024 239.902 32.824 242.142 32.824C245.31 32.824 247.406 31.432 248.43 28.648H254.334C253.566 31.336 252.126 33.48 250.014 35.08C247.902 36.648 245.278 37.432 242.142 37.432C239.614 37.432 237.374 36.872 235.422 35.752C233.47 34.6 231.934 33 230.814 30.952C229.726 28.872 229.182 26.472 229.182 23.752ZM270.252 23.8L282.444 37H275.052L265.26 25.624V37H259.788V1.48H265.26V22.12L274.86 10.552H282.444L270.252 23.8ZM310.606 23.128C310.606 24.12 310.542 25.016 310.414 25.816H290.206C290.366 27.928 291.15 29.624 292.558 30.904C293.966 32.184 295.694 32.824 297.742 32.824C300.686 32.824 302.766 31.592 303.982 29.128H309.886C309.086 31.56 307.63 33.56 305.518 35.128C303.438 36.664 300.846 37.432 297.742 37.432C295.214 37.432 292.942 36.872 290.926 35.752C288.942 34.6 287.374 33 286.222 30.952C285.102 28.872 284.542 26.472 284.542 23.752C284.542 21.032 285.086 18.648 286.174 16.6C287.294 14.52 288.846 12.92 290.83 11.8C292.846 10.68 295.15 10.12 297.742 10.12C300.238 10.12 302.462 10.664 304.414 11.752C306.366 12.84 307.886 14.376 308.974 16.36C310.062 18.312 310.606 20.568 310.606 23.128ZM304.894 21.4C304.862 19.384 304.142 17.768 302.734 16.552C301.326 15.336 299.582 14.728 297.502 14.728C295.614 14.728 293.998 15.336 292.654 16.552C291.31 17.736 290.51 19.352 290.254 21.4H304.894ZM321.463 14.392C322.263 13.048 323.319 12.008 324.631 11.272C325.975 10.504 327.559 10.12 329.383 10.12V15.784H327.991C325.847 15.784 324.215 16.328 323.095 17.416C322.007 18.504 321.463 20.392 321.463 23.08V37H315.991V10.552H321.463V14.392Z" fill="#E9A319"/>
<path d="M40.3075 10.552L41.2626 10.8484L41.6649 9.552H40.3075V10.552ZM32.0995 37V38H32.8362L33.0546 37.2964L32.0995 37ZM26.3395 37L25.3747 37.2631L25.5757 38H26.3395V37ZM21.0115 17.464L21.9763 17.2009L21.0115 13.6634L20.0467 17.2009L21.0115 17.464ZM15.6835 37V38H16.4473L16.6483 37.2631L15.6835 37ZM9.9235 37L8.96893 37.298L9.18807 38H9.9235V37ZM1.6675 10.552V9.552H0.307751L0.712928 10.85L1.6675 10.552ZM7.2355 10.552L8.20342 10.3007L8.00905 9.552H7.2355V10.552ZM12.7555 31.816L11.7876 32.0673L12.7472 35.7637L13.7223 32.0714L12.7555 31.816ZM18.3715 10.552V9.552H17.6013L17.4047 10.2966L18.3715 10.552ZM24.0835 10.552L25.0527 10.3058L24.8613 9.552H24.0835V10.552ZM29.4595 31.72L28.4903 31.9662L30.4277 31.9703L29.4595 31.72ZM34.9315 10.552V9.552H34.1571L33.9633 10.3017L34.9315 10.552ZM40.3075 10.552L39.3524 10.2556L31.1444 36.7036L32.0995 37L33.0546 37.2964L41.2626 10.8484L40.3075 10.552ZM32.0995 37V36H26.3395V37V38H32.0995V37ZM26.3395 37L27.3043 36.7369L21.9763 17.2009L21.0115 17.464L20.0467 17.7271L25.3747 37.2631L26.3395 37ZM21.0115 17.464L20.0467 17.2009L14.7187 36.7369L15.6835 37L16.6483 37.2631L21.9763 17.7271L21.0115 17.464ZM15.6835 37V36H9.9235V37V38H15.6835V37ZM9.9235 37L10.8781 36.702L2.62207 10.254L1.6675 10.552L0.712928 10.85L8.96893 37.298L9.9235 37ZM1.6675 10.552V11.552H7.2355V10.552V9.552H1.6675V10.552ZM7.2355 10.552L6.26758 10.8033L11.7876 32.0673L12.7555 31.816L13.7234 31.5647L8.20342 10.3007L7.2355 10.552ZM12.7555 31.816L13.7223 32.0714L19.3383 10.8074L18.3715 10.552L17.4047 10.2966L11.7887 31.5606L12.7555 31.816ZM18.3715 10.552V11.552H24.0835V10.552V9.552H18.3715V10.552ZM24.0835 10.552L23.1143 10.7982L28.4903 31.9662L29.4595 31.72L30.4287 31.4738L25.0527 10.3058L24.0835 10.552ZM29.4595 31.72L30.4277 31.9703L35.8997 10.8023L34.9315 10.552L33.9633 10.3017L28.4913 31.4697L29.4595 31.72ZM34.9315 10.552V11.552H40.3075V10.552V9.552H34.9315V10.552ZM44.2049 16.6L43.3274 16.1202L43.3218 16.1308L44.2049 16.6ZM48.7169 11.848L49.2271 12.7081L49.2314 12.7055L48.7169 11.848ZM60.4769 11.368L60.0006 12.2473L60.0114 12.2532L60.0224 12.2588L60.4769 11.368ZM64.2209 14.392L63.4259 14.9987L65.2209 17.3507V14.392H64.2209ZM64.2209 10.552V9.552H63.2209V10.552H64.2209ZM69.7409 10.552H70.7409V9.552H69.7409V10.552ZM69.7409 37V38H70.7409V37H69.7409ZM64.2209 37H63.2209V38H64.2209V37ZM64.2209 33.064H65.2209V30.0433L63.4184 32.4673L64.2209 33.064ZM60.4289 36.184L59.9675 35.2968L60.4289 36.184ZM48.7169 35.704L48.1855 36.5513L48.196 36.5576L48.7169 35.704ZM44.2049 30.808L43.3159 31.266L43.3201 31.2741L43.3244 31.2821L44.2049 30.808ZM63.0689 19L62.1918 19.4803L62.1961 19.4883L62.2006 19.4961L63.0689 19ZM60.1409 15.928L59.6398 16.7934L60.1409 15.928ZM52.2689 15.928L52.7526 16.8032L52.7613 16.7984L52.7699 16.7934L52.2689 15.928ZM49.2929 18.952L48.4246 18.4558L48.4207 18.4627L49.2929 18.952ZM49.2929 28.456L48.4111 28.9277L48.4153 28.9355L48.4197 28.9434L49.2929 28.456ZM52.2689 31.624L51.7511 32.4795L51.7642 32.4874L51.7776 32.495L52.2689 31.624ZM60.1409 31.624L60.6419 32.4894H60.6419L60.1409 31.624ZM63.0689 28.552L62.1956 28.0646L62.1918 28.0717L63.0689 28.552ZM42.5729 23.656H43.5729C43.5729 21.1396 44.0872 18.9529 45.088 17.0692L44.2049 16.6L43.3218 16.1308C42.1465 18.3431 41.5729 20.8604 41.5729 23.656H42.5729ZM44.2049 16.6L45.0822 17.0798C46.1218 15.1788 47.5032 13.7307 49.2271 12.7081L48.7169 11.848L48.2067 10.9879C46.1545 12.2053 44.5279 13.9252 43.3275 16.1202L44.2049 16.6ZM48.7169 11.848L49.2314 12.7055C50.9913 11.6495 52.9246 11.12 55.0529 11.12V10.12V9.12C52.5731 9.12 50.2825 9.74246 48.2024 10.9905L48.7169 11.848ZM55.0529 10.12V11.12C56.9982 11.12 58.6364 11.5083 60.0006 12.2473L60.4769 11.368L60.9532 10.4887C59.2454 9.56367 57.2675 9.12 55.0529 9.12V10.12ZM60.4769 11.368L60.0224 12.2588C61.4772 13.001 62.6015 13.9184 63.4259 14.9987L64.2209 14.392L65.0158 13.7853C63.9843 12.4336 62.6126 11.335 60.9313 10.4772L60.4769 11.368ZM64.2209 14.392H65.2209V10.552H64.2209H63.2209V14.392H64.2209ZM64.2209 10.552V11.552H69.7409V10.552V9.552H64.2209V10.552ZM69.7409 10.552H68.7409V37H69.7409H70.7409V10.552H69.7409ZM69.7409 37V36H64.2209V37V38H69.7409V37ZM64.2209 37H65.2209V33.064H64.2209H63.2209V37H64.2209ZM64.2209 33.064L63.4184 32.4673C62.594 33.5759 61.4547 34.5235 59.9675 35.2968L60.4289 36.184L60.8902 37.0712C62.6031 36.1805 63.9917 35.048 65.0233 33.6607L64.2209 33.064ZM60.4289 36.184L59.9675 35.2968C58.5283 36.0452 56.8663 36.432 54.9569 36.432V37.432V38.432C57.1435 38.432 59.1294 37.9868 60.8902 37.0712L60.4289 36.184ZM54.9569 37.432V36.432C52.8634 36.432 50.9644 35.9039 49.2377 34.8504L48.7169 35.704L48.196 36.5576C50.2453 37.8081 52.5064 38.432 54.9569 38.432V37.432ZM48.7169 35.704L49.2482 34.8568C47.5158 33.7704 46.1283 32.2709 45.0853 30.3339L44.2049 30.808L43.3244 31.2821C44.5214 33.5051 46.142 35.2696 48.1856 36.5512L48.7169 35.704ZM44.2049 30.808L45.0938 30.35C44.0871 28.3957 43.5729 26.1717 43.5729 23.656H42.5729H41.5729C41.5729 26.4523 42.1467 28.9963 43.3159 31.266L44.2049 30.808ZM64.2209 23.752H65.2209C65.2209 21.7852 64.8057 20.0239 63.9371 18.5039L63.0689 19L62.2006 19.4961C62.868 20.6641 63.2209 22.0708 63.2209 23.752H64.2209ZM63.0689 19L63.946 18.5197C63.1304 17.0304 62.0303 15.8664 60.6419 15.0626L60.1409 15.928L59.6398 16.7934C60.6835 17.3976 61.5354 18.2816 62.1918 19.4803L63.0689 19ZM60.1409 15.928L60.6419 15.0626C59.2733 14.2702 57.7884 13.872 56.2049 13.872V14.872V15.872C57.4373 15.872 58.5764 16.1778 59.6398 16.7934L60.1409 15.928ZM56.2049 14.872V13.872C54.6213 13.872 53.1364 14.2702 51.7678 15.0626L52.2689 15.928L52.7699 16.7934C53.8333 16.1778 54.9724 15.872 56.2049 15.872V14.872ZM52.2689 15.928L51.7852 15.0528C50.3908 15.8233 49.2729 16.9713 48.4246 18.4559L49.2929 18.952L50.1611 19.4481C50.8488 18.2447 51.7149 17.3767 52.7526 16.8032L52.2689 15.928ZM49.2929 18.952L48.4207 18.4627C47.5848 19.9529 47.1889 21.6969 47.1889 23.656H48.1889H49.1889C49.1889 21.9671 49.529 20.5751 50.165 19.4412L49.2929 18.952ZM48.1889 23.656H47.1889C47.1889 25.6167 47.5853 27.3838 48.4111 28.9277L49.2929 28.456L50.1747 27.9843C49.5284 26.7762 49.1889 25.3433 49.1889 23.656H48.1889ZM49.2929 28.456L48.4197 28.9434C49.2628 30.454 50.371 31.6442 51.7511 32.4795L52.2689 31.624L52.7867 30.7685C51.7347 30.1318 50.8589 29.21 50.1661 27.9686L49.2929 28.456ZM52.2689 31.624L51.7776 32.495C53.169 33.2799 54.6495 33.68 56.2049 33.68V32.68V31.68C55.0083 31.68 53.8647 31.3761 52.7602 30.753L52.2689 31.624ZM56.2049 32.68V33.68C57.7884 33.68 59.2733 33.2818 60.6419 32.4894L60.1409 31.624L59.6398 30.7586C58.5764 31.3742 57.4373 31.68 56.2049 31.68V32.68ZM60.1409 31.624L60.6419 32.4894C62.0303 31.6856 63.1304 30.5216 63.946 29.0323L63.0689 28.552L62.1918 28.0717C61.5354 29.2704 60.6835 30.1544 59.6398 30.7586L60.1409 31.624ZM63.0689 28.552L63.9421 29.0394C64.8055 27.4924 65.2209 25.7195 65.2209 23.752H64.2209H63.2209C63.2209 25.4325 62.8682 26.8596 62.1957 28.0646L63.0689 28.552ZM82.4001 1.48H83.4001V0.48H82.4001V1.48ZM82.4001 37V38H83.4001V37H82.4001ZM76.9281 37H75.9281V38H76.9281V37ZM76.9281 1.48V0.48H75.9281V1.48H76.9281ZM82.4001 1.48H81.4001V37H82.4001H83.4001V1.48H82.4001ZM82.4001 37V36H76.9281V37V38H82.4001V37ZM76.9281 37H77.9281V1.48H76.9281H75.9281V37H76.9281ZM76.9281 1.48V2.48H82.4001V1.48V0.48H76.9281V1.48ZM95.0564 1.48H96.0564V0.48H95.0564V1.48ZM95.0564 37V38H96.0564V37H95.0564ZM89.5844 37H88.5844V38H89.5844V37ZM89.5844 1.48V0.48H88.5844V1.48H89.5844ZM95.0564 1.48H94.0564V37H95.0564H96.0564V1.48H95.0564ZM95.0564 37V36H89.5844V37V38H95.0564V37ZM89.5844 37H90.5844V1.48H89.5844H88.5844V37H89.5844ZM89.5844 1.48V2.48H95.0564V1.48V0.48H89.5844V1.48ZM126.289 25.816V26.816H127.141L127.276 25.974L126.289 25.816ZM106.081 25.816V24.816H105.002L105.083 25.8915L106.081 25.816ZM108.433 30.904L107.76 31.6439L108.433 30.904ZM119.857 29.128V28.128H119.235L118.96 28.6855L119.857 29.128ZM125.761 29.128L126.711 29.4405L127.142 28.128H125.761V29.128ZM121.393 35.128L121.987 35.9324L121.989 35.9309L121.393 35.128ZM106.801 35.752L106.298 36.6168L106.307 36.6216L106.315 36.6262L106.801 35.752ZM102.097 30.952L101.216 31.4261L101.221 31.4342L101.225 31.4423L102.097 30.952ZM102.049 16.6L101.168 16.1259L101.166 16.1308L102.049 16.6ZM106.705 11.8L106.219 10.9258L106.213 10.9292L106.705 11.8ZM120.289 11.752L120.775 10.8785L120.289 11.752ZM124.849 16.36L123.972 16.8408L123.975 16.8469L124.849 16.36ZM120.769 21.4V22.4H121.785L121.769 21.3841L120.769 21.4ZM118.609 16.552L119.262 15.7952L118.609 16.552ZM108.529 16.552L109.19 17.3024L109.2 17.2935L108.529 16.552ZM106.129 21.4L105.136 21.276L104.996 22.4H106.129V21.4ZM126.481 23.128H125.481C125.481 24.0784 125.419 24.9203 125.301 25.658L126.289 25.816L127.276 25.974C127.414 25.1117 127.481 24.1616 127.481 23.128H126.481ZM126.289 25.816V24.816H106.081V25.816V26.816H126.289V25.816ZM106.081 25.816L105.083 25.8915C105.26 28.227 106.141 30.1721 107.76 31.6439L108.433 30.904L109.105 30.1641C107.908 29.0759 107.221 27.629 107.078 25.7405L106.081 25.816ZM108.433 30.904L107.76 31.6439C109.367 33.1047 111.341 33.824 113.617 33.824V32.824V31.824C111.797 31.824 110.314 31.2633 109.105 30.1641L108.433 30.904ZM113.617 32.824V33.824C115.229 33.824 116.67 33.4858 117.894 32.7604C119.123 32.0326 120.072 30.952 120.753 29.5705L119.857 29.128L118.96 28.6855C118.426 29.768 117.726 30.5354 116.875 31.0396C116.02 31.5462 114.948 31.824 113.617 31.824V32.824ZM119.857 29.128V30.128H125.761V29.128V28.128H119.857V29.128ZM125.761 29.128L124.811 28.8155C124.077 31.0458 122.748 32.8765 120.797 34.3251L121.393 35.128L121.989 35.9309C124.262 34.2435 125.844 32.0742 126.711 29.4405L125.761 29.128ZM121.393 35.128L120.799 34.3236C118.923 35.7087 116.551 36.432 113.617 36.432V37.432V38.432C116.89 38.432 119.702 37.6193 121.987 35.9324L121.393 35.128ZM113.617 37.432V36.432C111.242 36.432 109.14 35.9075 107.286 34.8778L106.801 35.752L106.315 36.6262C108.494 37.8365 110.935 38.432 113.617 38.432V37.432ZM106.801 35.752L107.303 34.8872C105.477 33.8271 104.035 32.3581 102.968 30.4617L102.097 30.952L101.225 31.4423C102.462 33.6419 104.156 35.3729 106.298 36.6168L106.801 35.752ZM102.097 30.952L102.977 30.4779C101.947 28.5643 101.417 26.3318 101.417 23.752H100.417H99.4166C99.4166 26.6122 100.007 29.1797 101.216 31.4261L102.097 30.952ZM100.417 23.752H101.417C101.417 21.1673 101.933 18.9496 102.932 17.0692L102.049 16.6L101.166 16.1308C99.9885 18.3464 99.4166 20.8967 99.4166 23.752H100.417ZM102.049 16.6L102.929 17.0741C103.963 15.154 105.383 13.6944 107.196 12.6708L106.705 11.8L106.213 10.9292C104.058 12.1456 102.374 13.886 101.168 16.1259L102.049 16.6ZM106.705 11.8L107.19 12.6742C109.04 11.6465 111.173 11.12 113.617 11.12V10.12V9.12C110.876 9.12 108.401 9.71349 106.219 10.9258L106.705 11.8ZM113.617 10.12V11.12C115.963 11.12 118.015 11.6298 119.802 12.6255L120.289 11.752L120.775 10.8785C118.658 9.69819 116.263 9.12 113.617 9.12V10.12ZM120.289 11.752L119.802 12.6255C121.587 13.6207 122.973 15.0196 123.972 16.8408L124.849 16.36L125.725 15.8792C124.548 13.7324 122.894 12.0593 120.775 10.8785L120.289 11.752ZM124.849 16.36L123.975 16.8469C124.969 18.6295 125.481 20.7133 125.481 23.128H126.481H127.481C127.481 20.4227 126.904 17.9945 125.722 15.8731L124.849 16.36ZM120.769 21.4L121.769 21.3841C121.732 19.1099 120.906 17.2144 119.262 15.7952L118.609 16.552L117.955 17.3088C119.128 18.3216 119.741 19.6581 119.769 21.4159L120.769 21.4ZM118.609 16.552L119.262 15.7952C117.651 14.4036 115.666 13.728 113.377 13.728V14.728V15.728C115.247 15.728 116.75 16.2684 117.955 17.3088L118.609 16.552ZM113.377 14.728V13.728C111.252 13.728 109.394 14.4207 107.858 15.8105L108.529 16.552L109.2 17.2935C110.351 16.2513 111.725 15.728 113.377 15.728V14.728ZM108.529 16.552L107.868 15.8016C106.313 17.1714 105.418 19.025 105.136 21.276L106.129 21.4L107.121 21.524C107.352 19.679 108.056 18.3006 109.19 17.3024L108.529 16.552ZM106.129 21.4V22.4H120.769V21.4V20.4H106.129V21.4ZM138.25 15.016V14.016H137.25V15.016H138.25ZM138.922 31.816L138.215 32.5231L138.24 32.5483L138.267 32.5717L138.922 31.816ZM144.682 32.44H145.682V31.44H144.682V32.44ZM144.682 37V38H145.682V37H144.682ZM134.698 35.272L134.038 36.0234L134.698 35.272ZM132.73 15.016H133.73V14.016H132.73V15.016ZM129.61 15.016H128.61V16.016H129.61V15.016ZM129.61 10.552V9.552H128.61V10.552H129.61ZM132.73 10.552V11.552H133.73V10.552H132.73ZM132.73 3.976V2.976H131.73V3.976H132.73ZM138.25 3.976H139.25V2.976H138.25V3.976ZM138.25 10.552H137.25V11.552H138.25V10.552ZM144.682 10.552H145.682V9.552H144.682V10.552ZM144.682 15.016V16.016H145.682V15.016H144.682ZM138.25 15.016H137.25V29.656H138.25H139.25V15.016H138.25ZM138.25 29.656H137.25C137.25 30.7675 137.496 31.805 138.215 32.5231L138.922 31.816L139.629 31.1089C139.451 30.931 139.25 30.5285 139.25 29.656H138.25ZM138.922 31.816L138.267 32.5717C139.024 33.2276 140.127 33.44 141.322 33.44V32.44V31.44C140.276 31.44 139.78 31.2364 139.577 31.0603L138.922 31.816ZM141.322 32.44V33.44H144.682V32.44V31.44H141.322V32.44ZM144.682 32.44H143.682V37H144.682H145.682V32.44H144.682ZM144.682 37V36H140.362V37V38H144.682V37ZM140.362 37V36C138.041 36 136.424 35.4572 135.357 34.5206L134.698 35.272L134.038 36.0234C135.595 37.3908 137.754 38 140.362 38V37ZM134.698 35.272L135.357 34.5206C134.349 33.6351 133.73 32.1015 133.73 29.656H132.73H131.73C131.73 32.3945 132.422 34.6049 134.038 36.0234L134.698 35.272ZM132.73 29.656H133.73V15.016H132.73H131.73V29.656H132.73ZM132.73 15.016V14.016H129.61V15.016V16.016H132.73V15.016ZM129.61 15.016H130.61V10.552H129.61H128.61V15.016H129.61ZM129.61 10.552V11.552H132.73V10.552V9.552H129.61V10.552ZM132.73 10.552H133.73V3.976H132.73H131.73V10.552H132.73ZM132.73 3.976V4.976H138.25V3.976V2.976H132.73V3.976ZM138.25 3.976H137.25V10.552H138.25H139.25V3.976H138.25ZM138.25 10.552V11.552H144.682V10.552V9.552H138.25V10.552ZM144.682 10.552H143.682V15.016H144.682H145.682V10.552H144.682ZM144.682 15.016V14.016H138.25V15.016V16.016H144.682V15.016ZM168.578 15.016V14.016H167.578V15.016H168.578ZM169.25 31.816L168.543 32.5231L168.568 32.5483L168.595 32.5717L169.25 31.816ZM175.01 32.44H176.01V31.44H175.01V32.44ZM175.01 37V38H176.01V37H175.01ZM165.026 35.272L164.366 36.0234L165.026 35.272ZM163.058 15.016H164.058V14.016H163.058V15.016ZM159.938 15.016H158.938V16.016H159.938V15.016ZM159.938 10.552V9.552H158.938V10.552H159.938ZM163.058 10.552V11.552H164.058V10.552H163.058ZM163.058 3.976V2.976H162.058V3.976H163.058ZM168.578 3.976H169.578V2.976H168.578V3.976ZM168.578 10.552H167.578V11.552H168.578V10.552ZM175.01 10.552H176.01V9.552H175.01V10.552ZM175.01 15.016V16.016H176.01V15.016H175.01ZM168.578 15.016H167.578V29.656H168.578H169.578V15.016H168.578ZM168.578 29.656H167.578C167.578 30.7675 167.825 31.805 168.543 32.5231L169.25 31.816L169.957 31.1089C169.779 30.931 169.578 30.5285 169.578 29.656H168.578ZM169.25 31.816L168.595 32.5717C169.352 33.2276 170.455 33.44 171.65 33.44V32.44V31.44C170.604 31.44 170.108 31.2364 169.905 31.0603L169.25 31.816ZM171.65 32.44V33.44H175.01V32.44V31.44H171.65V32.44ZM175.01 32.44H174.01V37H175.01H176.01V32.44H175.01ZM175.01 37V36H170.69V37V38H175.01V37ZM170.69 37V36C168.369 36 166.752 35.4572 165.686 34.5206L165.026 35.272L164.366 36.0234C165.923 37.3908 168.082 38 170.69 38V37ZM165.026 35.272L165.686 34.5206C164.677 33.6351 164.058 32.1015 164.058 29.656H163.058H162.058C162.058 32.3945 162.75 34.6049 164.366 36.0234L165.026 35.272ZM163.058 29.656H164.058V15.016H163.058H162.058V29.656H163.058ZM163.058 15.016V14.016H159.938V15.016V16.016H163.058V15.016ZM159.938 15.016H160.938V10.552H159.938H158.938V15.016H159.938ZM159.938 10.552V11.552H163.058V10.552V9.552H159.938V10.552ZM163.058 10.552H164.058V3.976H163.058H162.058V10.552H163.058ZM163.058 3.976V4.976H168.578V3.976V2.976H163.058V3.976ZM168.578 3.976H167.578V10.552H168.578H169.578V3.976H168.578ZM168.578 10.552V11.552H175.01V10.552V9.552H168.578V10.552ZM175.01 10.552H174.01V15.016H175.01H176.01V10.552H175.01ZM175.01 15.016V14.016H168.578V15.016V16.016H175.01V15.016ZM185.525 14.392H184.525V18.0271L186.384 14.9035L185.525 14.392ZM188.693 11.272L189.182 12.1442L189.189 12.1402L188.693 11.272ZM193.445 10.12H194.445V9.12H193.445V10.12ZM193.445 15.784V16.784H194.445V15.784H193.445ZM187.157 17.416L186.46 16.6987L186.455 16.7038L186.45 16.7089L187.157 17.416ZM185.525 37V38H186.525V37H185.525ZM180.053 37H179.053V38H180.053V37ZM180.053 10.552V9.552H179.053V10.552H180.053ZM185.525 10.552H186.525V9.552H185.525V10.552ZM185.525 14.392L186.384 14.9035C187.099 13.7038 188.029 12.7909 189.182 12.1441L188.693 11.272L188.204 10.3999C186.733 11.2251 185.552 12.3922 184.666 13.8805L185.525 14.392ZM188.693 11.272L189.189 12.1402C190.357 11.4729 191.764 11.12 193.445 11.12V10.12V9.12C191.478 9.12 189.717 9.53515 188.197 10.4038L188.693 11.272ZM193.445 10.12H192.445V15.784H193.445H194.445V10.12H193.445ZM193.445 15.784V14.784H192.053V15.784V16.784H193.445V15.784ZM192.053 15.784V14.784C189.748 14.784 187.828 15.3706 186.46 16.6987L187.157 17.416L187.854 18.1333C188.727 17.2854 190.071 16.784 192.053 16.784V15.784ZM187.157 17.416L186.45 16.7089C185.076 18.0832 184.525 20.3102 184.525 23.08H185.525H186.525C186.525 20.4738 187.063 18.9248 187.864 18.1231L187.157 17.416ZM185.525 23.08H184.525V37H185.525H186.525V23.08H185.525ZM185.525 37V36H180.053V37V38H185.525V37ZM180.053 37H181.053V10.552H180.053H179.053V37H180.053ZM180.053 10.552V11.552H185.525V10.552V9.552H180.053V10.552ZM185.525 10.552H184.525V14.392H185.525H186.525V10.552H185.525ZM198.283 16.6L197.406 16.1202L197.4 16.1308L198.283 16.6ZM202.795 11.848L203.305 12.7081L203.309 12.7055L202.795 11.848ZM214.555 11.368L214.079 12.2473L214.09 12.2532L214.101 12.2588L214.555 11.368ZM218.299 14.392L217.504 14.9987L219.299 17.3507V14.392H218.299ZM218.299 10.552V9.552H217.299V10.552H218.299ZM223.819 10.552H224.819V9.552H223.819V10.552ZM223.819 37V38H224.819V37H223.819ZM218.299 37H217.299V38H218.299V37ZM218.299 33.064H219.299V30.0433L217.497 32.4673L218.299 33.064ZM214.507 36.184L214.046 35.2968L214.507 36.184ZM202.795 35.704L202.264 36.5513L202.274 36.5576L202.795 35.704ZM198.283 30.808L197.394 31.266L197.398 31.2741L197.403 31.2821L198.283 30.808ZM217.147 19L216.27 19.4803L216.274 19.4883L216.279 19.4961L217.147 19ZM214.219 15.928L213.718 16.7934L214.219 15.928ZM206.347 15.928L206.831 16.8032L206.839 16.7984L206.848 16.7934L206.347 15.928ZM203.371 18.952L202.503 18.4558L202.499 18.4627L203.371 18.952ZM203.371 28.456L202.489 28.9277L202.493 28.9355L202.498 28.9434L203.371 28.456ZM206.347 31.624L205.829 32.4795L205.842 32.4874L205.856 32.495L206.347 31.624ZM214.219 31.624L214.72 32.4894L214.219 31.624ZM217.147 28.552L216.274 28.0646L216.27 28.0717L217.147 28.552ZM196.651 23.656H197.651C197.651 21.1396 198.165 18.9529 199.166 17.0692L198.283 16.6L197.4 16.1308C196.225 18.3431 195.651 20.8604 195.651 23.656H196.651ZM198.283 16.6L199.16 17.0798C200.2 15.1788 201.581 13.7307 203.305 12.7081L202.795 11.848L202.285 10.9879C200.233 12.2053 198.606 13.9252 197.406 16.1202L198.283 16.6ZM202.795 11.848L203.309 12.7055C205.069 11.6495 207.003 11.12 209.131 11.12V10.12V9.12C206.651 9.12 204.361 9.74246 202.281 10.9905L202.795 11.848ZM209.131 10.12V11.12C211.076 11.12 212.714 11.5083 214.079 12.2473L214.555 11.368L215.031 10.4887C213.324 9.56367 211.346 9.12 209.131 9.12V10.12ZM214.555 11.368L214.101 12.2588C215.555 13.001 216.68 13.9184 217.504 14.9987L218.299 14.392L219.094 13.7853C218.062 12.4336 216.691 11.335 215.009 10.4772L214.555 11.368ZM218.299 14.392H219.299V10.552H218.299H217.299V14.392H218.299ZM218.299 10.552V11.552H223.819V10.552V9.552H218.299V10.552ZM223.819 10.552H222.819V37H223.819H224.819V10.552H223.819ZM223.819 37V36H218.299V37V38H223.819V37ZM218.299 37H219.299V33.064H218.299H217.299V37H218.299ZM218.299 33.064L217.497 32.4673C216.672 33.5759 215.533 34.5235 214.046 35.2968L214.507 36.184L214.968 37.0712C216.681 36.1805 218.07 35.048 219.101 33.6607L218.299 33.064ZM214.507 36.184L214.046 35.2968C212.606 36.0452 210.944 36.432 209.035 36.432V37.432V38.432C211.222 38.432 213.208 37.9868 214.968 37.0712L214.507 36.184ZM209.035 37.432V36.432C206.941 36.432 205.043 35.9039 203.316 34.8504L202.795 35.704L202.274 36.5576C204.323 37.8081 206.585 38.432 209.035 38.432V37.432ZM202.795 35.704L203.326 34.8568C201.594 33.7704 200.206 32.2709 199.163 30.3339L198.283 30.808L197.403 31.2821C198.6 33.5051 200.22 35.2696 202.264 36.5512L202.795 35.704ZM198.283 30.808L199.172 30.35C198.165 28.3957 197.651 26.1717 197.651 23.656H196.651H195.651C195.651 26.4523 196.225 28.9963 197.394 31.266L198.283 30.808ZM218.299 23.752H219.299C219.299 21.7852 218.884 20.0239 218.015 18.5039L217.147 19L216.279 19.4961C216.946 20.6641 217.299 22.0708 217.299 23.752H218.299ZM217.147 19L218.024 18.5197C217.209 17.0304 216.108 15.8664 214.72 15.0626L214.219 15.928L213.718 16.7934C214.762 17.3976 215.613 18.2816 216.27 19.4803L217.147 19ZM214.219 15.928L214.72 15.0626C213.351 14.2702 211.867 13.872 210.283 13.872V14.872V15.872C211.515 15.872 212.655 16.1778 213.718 16.7934L214.219 15.928ZM210.283 14.872V13.872C208.699 13.872 207.215 14.2702 205.846 15.0626L206.347 15.928L206.848 16.7934C207.911 16.1778 209.051 15.872 210.283 15.872V14.872ZM206.347 15.928L205.863 15.0528C204.469 15.8233 203.351 16.9713 202.503 18.4559L203.371 18.952L204.239 19.4481C204.927 18.2447 205.793 17.3767 206.831 16.8032L206.347 15.928ZM203.371 18.952L202.499 18.4627C201.663 19.9529 201.267 21.6969 201.267 23.656H202.267H203.267C203.267 21.9671 203.607 20.5751 204.243 19.4412L203.371 18.952ZM202.267 23.656H201.267C201.267 25.6167 201.663 27.3838 202.489 28.9277L203.371 28.456L204.253 27.9843C203.607 26.7762 203.267 25.3433 203.267 23.656H202.267ZM203.371 28.456L202.498 28.9434C203.341 30.454 204.449 31.6442 205.829 32.4795L206.347 31.624L206.865 30.7685C205.813 30.1318 204.937 29.21 204.244 27.9686L203.371 28.456ZM206.347 31.624L205.856 32.495C207.247 33.2799 208.728 33.68 210.283 33.68V32.68V31.68C209.086 31.68 207.943 31.3761 206.838 30.753L206.347 31.624ZM210.283 32.68V33.68C211.867 33.68 213.351 33.2818 214.72 32.4894L214.219 31.624L213.718 30.7586C212.655 31.3742 211.515 31.68 210.283 31.68V32.68ZM214.219 31.624L214.72 32.4894C216.108 31.6856 217.209 30.5216 218.024 29.0323L217.147 28.552L216.27 28.0717C215.613 29.2704 214.762 30.1544 213.718 30.7586L214.219 31.624ZM217.147 28.552L218.02 29.0394C218.884 27.4924 219.299 25.7195 219.299 23.752H218.299H217.299C217.299 25.4325 216.946 26.8596 216.274 28.0646L217.147 28.552ZM230.814 16.6L229.934 16.1259L229.931 16.1308L230.814 16.6ZM235.422 11.8L234.925 10.9326V10.9326L235.422 11.8ZM250.062 12.424L249.468 13.2284L249.475 13.2336L249.482 13.2386L250.062 12.424ZM254.334 18.904V19.904H255.629L255.302 18.6511L254.334 18.904ZM248.43 18.904L247.491 19.2476L247.731 19.904H248.43V18.904ZM236.766 17.128L236.001 16.4848L235.999 16.4863L236.766 17.128ZM236.766 30.424L235.993 31.0581L236.001 31.0672L236.766 30.424ZM248.43 28.648V27.648H247.733L247.492 28.3028L248.43 28.648ZM254.334 28.648L255.296 28.9227L255.66 27.648H254.334V28.648ZM250.014 35.08L250.61 35.8829L250.618 35.8771L250.014 35.08ZM235.422 35.752L234.914 36.6133L234.925 36.6194L235.422 35.752ZM230.814 30.952L229.928 31.4155L229.932 31.4237L229.937 31.4318L230.814 30.952ZM229.182 23.752H230.182C230.182 21.1673 230.698 18.9496 231.697 17.0692L230.814 16.6L229.931 16.1308C228.754 18.3464 228.182 20.8967 228.182 23.752H229.182ZM230.814 16.6L231.695 17.0741C232.731 15.1498 234.138 13.6898 235.92 12.6674L235.422 11.8L234.925 10.9326C232.803 12.1502 231.138 13.8902 229.934 16.1259L230.814 16.6ZM235.422 11.8L235.92 12.6674C237.702 11.6446 239.767 11.12 242.142 11.12V10.12V9.12C239.462 9.12 237.046 9.71541 234.925 10.9326L235.422 11.8ZM242.142 10.12V11.12C245.18 11.12 247.598 11.847 249.468 13.2284L250.062 12.424L250.656 11.6196C248.367 9.92896 245.504 9.12 242.142 9.12V10.12ZM250.062 12.424L249.482 13.2386C251.38 14.5898 252.682 16.5381 253.367 19.1569L254.334 18.904L255.302 18.6511C254.514 15.6379 252.969 13.2662 250.642 11.6094L250.062 12.424ZM254.334 18.904V17.904H248.43V18.904V19.904H254.334V18.904ZM248.43 18.904L249.369 18.5604C248.825 17.0728 247.937 15.8752 246.698 15.0116L246.126 15.832L245.554 16.6524C246.427 17.2608 247.075 18.1112 247.491 19.2476L248.43 18.904ZM246.126 15.832L246.698 15.0116C245.437 14.133 243.897 13.728 242.142 13.728V14.728V15.728C243.588 15.728 244.703 16.059 245.554 16.6524L246.126 15.832ZM242.142 14.728V13.728C239.631 13.728 237.55 14.6407 236.001 16.4848L236.766 17.128L237.532 17.7712C238.671 16.4153 240.173 15.728 242.142 15.728V14.728ZM236.766 17.128L235.999 16.4863C234.487 18.2937 233.798 20.7608 233.798 23.752H234.798H235.798C235.798 21.0472 236.422 19.0983 237.533 17.7697L236.766 17.128ZM234.798 23.752H233.798C233.798 26.7448 234.488 29.2223 235.993 31.0581L236.766 30.424L237.54 29.7899C236.421 28.4257 235.798 26.4552 235.798 23.752H234.798ZM236.766 30.424L236.001 31.0672C237.55 32.9113 239.631 33.824 242.142 33.824V32.824V31.824C240.173 31.824 238.671 31.1367 237.532 29.7808L236.766 30.424ZM242.142 32.824V33.824C243.872 33.824 245.394 33.443 246.643 32.613C247.899 31.7795 248.797 30.5478 249.369 28.9932L248.43 28.648L247.492 28.3028C247.04 29.5322 246.378 30.3885 245.537 30.947C244.691 31.509 243.58 31.824 242.142 31.824V32.824ZM248.43 28.648V29.648H254.334V28.648V27.648H248.43V28.648ZM254.334 28.648L253.373 28.3733C252.661 30.8653 251.34 32.8212 249.41 34.2829L250.014 35.08L250.618 35.8771C252.913 34.1388 254.472 31.8067 255.296 28.9227L254.334 28.648ZM250.014 35.08L249.418 34.2771C247.51 35.6939 245.106 36.432 242.142 36.432V37.432V38.432C245.45 38.432 248.295 37.6021 250.61 35.8829L250.014 35.08ZM242.142 37.432V36.432C239.767 36.432 237.702 35.9074 235.92 34.8846L235.422 35.752L234.925 36.6194C237.046 37.8366 239.462 38.432 242.142 38.432V37.432ZM235.422 35.752L235.931 34.8908C234.138 33.8332 232.728 32.3671 231.692 30.4722L230.814 30.952L229.937 31.4318C231.141 33.6329 232.802 35.3668 234.914 36.6132L235.422 35.752ZM230.814 30.952L231.7 30.4885C230.698 28.5727 230.182 26.3363 230.182 23.752H229.182H228.182C228.182 26.6077 228.754 29.1713 229.928 31.4155L230.814 30.952ZM270.251 23.8L269.516 23.1228L268.891 23.8012L269.517 24.4785L270.251 23.8ZM282.444 37V38H284.728L283.178 36.3215L282.444 37ZM275.052 37L274.294 37.6524L274.593 38H275.052V37ZM265.259 25.624L266.017 24.9716L264.259 22.9294V25.624H265.259ZM265.259 37V38H266.259V37H265.259ZM259.788 37H258.788V38H259.788V37ZM259.788 1.48V0.48H258.788V1.48H259.788ZM265.259 1.48H266.259V0.48H265.259V1.48ZM265.259 22.12H264.259V24.8909L266.029 22.7586L265.259 22.12ZM274.859 10.552V9.552H274.39L274.09 9.91339L274.859 10.552ZM282.444 10.552L283.179 11.2292L284.723 9.552H282.444V10.552ZM270.251 23.8L269.517 24.4785L281.709 37.6785L282.444 37L283.178 36.3215L270.986 23.1215L270.251 23.8ZM282.444 37V36H275.052V37V38H282.444V37ZM275.052 37L275.809 36.3476L266.017 24.9716L265.259 25.624L264.502 26.2764L274.294 37.6524L275.052 37ZM265.259 25.624H264.259V37H265.259H266.259V25.624H265.259ZM265.259 37V36H259.788V37V38H265.259V37ZM259.788 37H260.788V1.48H259.788H258.788V37H259.788ZM259.788 1.48V2.48H265.259V1.48V0.48H259.788V1.48ZM265.259 1.48H264.259V22.12H265.259H266.259V1.48H265.259ZM265.259 22.12L266.029 22.7586L275.629 11.1906L274.859 10.552L274.09 9.91339L264.49 21.4814L265.259 22.12ZM274.859 10.552V11.552H282.444V10.552V9.552H274.859V10.552ZM282.444 10.552L281.708 9.87483L269.516 23.1228L270.251 23.8L270.987 24.4772L283.179 11.2292L282.444 10.552ZM310.414 25.816V26.816H311.266L311.401 25.974L310.414 25.816ZM290.206 25.816V24.816H289.127L289.208 25.8915L290.206 25.816ZM292.558 30.904L291.885 31.6439L292.558 30.904ZM303.982 29.128V28.128H303.36L303.085 28.6855L303.982 29.128ZM309.886 29.128L310.836 29.4405L311.267 28.128H309.886V29.128ZM305.518 35.128L306.112 35.9324L306.114 35.9309L305.518 35.128ZM290.926 35.752L290.423 36.6168L290.432 36.6216L290.44 36.6262L290.926 35.752ZM286.222 30.952L285.341 31.4261L285.346 31.4342L285.35 31.4423L286.222 30.952ZM286.174 16.6L285.293 16.1259L285.29 16.1308L286.174 16.6ZM290.83 11.8L290.344 10.9258L290.338 10.9292L290.83 11.8ZM304.414 11.752L304.9 10.8785L304.414 11.752ZM308.974 16.36L308.097 16.8408L308.1 16.8469L308.974 16.36ZM304.894 21.4V22.4H305.91L305.893 21.3841L304.894 21.4ZM302.734 16.552L303.387 15.7952L302.734 16.552ZM292.654 16.552L293.315 17.3024L293.325 17.2935L292.654 16.552ZM290.254 21.4L289.261 21.276L289.121 22.4H290.254V21.4ZM310.606 23.128H309.606C309.606 24.0784 309.544 24.9203 309.426 25.658L310.414 25.816L311.401 25.974C311.539 25.1117 311.606 24.1616 311.606 23.128H310.606ZM310.414 25.816V24.816H290.206V25.816V26.816H310.414V25.816ZM290.206 25.816L289.208 25.8915C289.385 28.227 290.266 30.1721 291.885 31.6439L292.558 30.904L293.23 30.1641C292.033 29.0759 291.346 27.629 291.203 25.7405L290.206 25.816ZM292.558 30.904L291.885 31.6439C293.492 33.1047 295.466 33.824 297.742 33.824V32.824V31.824C295.922 31.824 294.439 31.2633 293.23 30.1641L292.558 30.904ZM297.742 32.824V33.824C299.354 33.824 300.795 33.4858 302.019 32.7604C303.248 32.0326 304.197 30.952 304.878 29.5705L303.982 29.128L303.085 28.6855C302.551 29.768 301.851 30.5354 301 31.0396C300.145 31.5462 299.073 31.824 297.742 31.824V32.824ZM303.982 29.128V30.128H309.886V29.128V28.128H303.982V29.128ZM309.886 29.128L308.936 28.8155C308.202 31.0458 306.873 32.8765 304.922 34.3251L305.518 35.128L306.114 35.9309C308.387 34.2435 309.969 32.0742 310.836 29.4405L309.886 29.128ZM305.518 35.128L304.924 34.3236C303.048 35.7087 300.676 36.432 297.742 36.432V37.432V38.432C301.015 38.432 303.827 37.6193 306.112 35.9324L305.518 35.128ZM297.742 37.432V36.432C295.367 36.432 293.265 35.9075 291.411 34.8778L290.926 35.752L290.44 36.6262C292.619 37.8365 295.06 38.432 297.742 38.432V37.432ZM290.926 35.752L291.428 34.8872C289.602 33.8271 288.16 32.3581 287.093 30.4617L286.222 30.952L285.35 31.4423C286.587 33.6419 288.281 35.3729 290.423 36.6168L290.926 35.752ZM286.222 30.952L287.102 30.4779C286.072 28.5643 285.542 26.3318 285.542 23.752H284.542H283.542C283.542 26.6122 284.132 29.1797 285.341 31.4261L286.222 30.952ZM284.542 23.752H285.542C285.542 21.1673 286.058 18.9496 287.057 17.0692L286.174 16.6L285.29 16.1308C284.113 18.3464 283.542 20.8967 283.542 23.752H284.542ZM286.174 16.6L287.054 17.0741C288.088 15.154 289.508 13.6944 291.321 12.6708L290.83 11.8L290.338 10.9292C288.183 12.1456 286.499 13.886 285.293 16.1259L286.174 16.6ZM290.83 11.8L291.315 12.6742C293.165 11.6465 295.298 11.12 297.742 11.12V10.12V9.12C295.001 9.12 292.526 9.71349 290.344 10.9258L290.83 11.8ZM297.742 10.12V11.12C300.088 11.12 302.14 11.6298 303.927 12.6255L304.414 11.752L304.9 10.8785C302.783 9.69819 300.388 9.12 297.742 9.12V10.12ZM304.414 11.752L303.927 12.6255C305.712 13.6207 307.098 15.0196 308.097 16.8408L308.974 16.36L309.85 15.8792C308.673 13.7324 307.019 12.0593 304.9 10.8785L304.414 11.752ZM308.974 16.36L308.1 16.8469C309.094 18.6295 309.606 20.7133 309.606 23.128H310.606H311.606C311.606 20.4227 311.03 17.9945 309.847 15.8731L308.974 16.36ZM304.894 21.4L305.893 21.3841C305.857 19.1099 305.031 17.2144 303.387 15.7952L302.734 16.552L302.08 17.3088C303.253 18.3216 303.866 19.6581 303.894 21.4159L304.894 21.4ZM302.734 16.552L303.387 15.7952C301.776 14.4036 299.791 13.728 297.502 13.728V14.728V15.728C299.372 15.728 300.875 16.2684 302.08 17.3088L302.734 16.552ZM297.502 14.728V13.728C295.377 13.728 293.519 14.4207 291.983 15.8105L292.654 16.552L293.325 17.2935C294.476 16.2513 295.85 15.728 297.502 15.728V14.728ZM292.654 16.552L291.993 15.8016C290.438 17.1714 289.543 19.025 289.261 21.276L290.254 21.4L291.246 21.524C291.477 19.679 292.181 18.3006 293.315 17.3024L292.654 16.552ZM290.254 21.4V22.4H304.894V21.4V20.4H290.254V21.4ZM321.463 14.392H320.463V18.0271L322.322 14.9035L321.463 14.392ZM324.631 11.272L325.12 12.1442L325.127 12.1402L324.631 11.272ZM329.383 10.12H330.383V9.12H329.383V10.12ZM329.383 15.784V16.784H330.383V15.784H329.383ZM323.095 17.416L322.398 16.6987L322.393 16.7038L322.388 16.7089L323.095 17.416ZM321.463 37V38H322.463V37H321.463ZM315.991 37H314.991V38H315.991V37ZM315.991 10.552V9.552H314.991V10.552H315.991ZM321.463 10.552H322.463V9.552H321.463V10.552ZM321.463 14.392L322.322 14.9035C323.036 13.7038 323.967 12.7909 325.12 12.1441L324.631 11.272L324.141 10.3999C322.67 11.2251 321.489 12.3922 320.603 13.8805L321.463 14.392ZM324.631 11.272L325.127 12.1402C326.295 11.4729 327.701 11.12 329.383 11.12V10.12V9.12C327.416 9.12 325.655 9.53515 324.134 10.4038L324.631 11.272ZM329.383 10.12H328.383V15.784H329.383H330.383V10.12H329.383ZM329.383 15.784V14.784H327.991V15.784V16.784H329.383V15.784ZM327.991 15.784V14.784C325.685 14.784 323.765 15.3706 322.398 16.6987L323.095 17.416L323.791 18.1333C324.664 17.2854 326.008 16.784 327.991 16.784V15.784ZM323.095 17.416L322.388 16.7089C321.013 18.0832 320.463 20.3102 320.463 23.08H321.463H322.463C322.463 20.4738 323 18.9248 323.802 18.1231L323.095 17.416ZM321.463 23.08H320.463V37H321.463H322.463V23.08H321.463ZM321.463 37V36H315.991V37V38H321.463V37ZM315.991 37H316.991V10.552H315.991H314.991V37H315.991ZM315.991 10.552V11.552H321.463V10.552V9.552H315.991V10.552ZM321.463 10.552H320.463V14.392H321.463H322.463V10.552H321.463Z" fill="#E9A319" mask="url(#path-1-outside-1_2_105)"/>
</svg>
